<svg width="227" height="44" viewBox="0 0 227 44" fill="none" xmlns="http://www.w3.org/2000/svg">
<path d="M15.5 40.15C15.0667 40.15 14.7667 40.0333 14.6 39.8C14.4667 39.6 14.4 39.25 14.4 38.75V34.2C14.4 31.9333 14.3333 29.1833 14.2 25.95C14.1667 25.35 14.15 24.4833 14.15 23.35C14.05 20.9833 14 19.1167 14 17.75L14.05 14.95C14.0833 14.1167 14.1 13.1833 14.1 12.15C14.1 11.25 14.0833 10.45 14.05 9.75C14.0167 9.25 13.9833 8.83333 13.95 8.5C13.95 8.16667 13.9333 7.9 13.9 7.7L13.8 8.05C13.4333 10.4833 12.8833 13.6833 12.15 17.65C11.4167 21.6167 10.8167 24.8 10.35 27.2C9.88333 29.3333 9.58333 30.85 9.45 31.75C9.38333 32.1833 9.23333 32.5333 9 32.8C8.8 33.0667 8.56667 33.2 8.3 33.2C8.03333 33.2 7.8 33.0667 7.6 32.8C7.4 32.5333 7.28333 32.15 7.25 31.65C7.01667 30.05 6.16667 25.5833 4.7 18.25C3.23333 10.9167 2.41667 7.11666 2.25 6.85C2.15 9.85 2.1 13.2167 2.1 16.95C2.1 19.8833 2.11667 22.5333 2.15 24.9C2.18333 27.2667 2.2 29.9167 2.2 32.85C2.2 33.35 2.25 34.1333 2.35 35.2L2.45 37.6C2.45 38.2333 2.33333 38.6667 2.1 38.9C1.13333 38.9 0.65 38.0333 0.65 36.3V27.95L0.7 22.9C0.733333 21.4 0.75 19.7 0.75 17.8C0.75 15.6 0.766667 13.6333 0.8 11.9L0.9 5.95V1.55C0.9 1.38333 0.966667 1.23333 1.1 1.1C1.26667 0.966666 1.43333 0.899999 1.6 0.899999C1.86667 0.899999 2.05 1.03333 2.15 1.3C2.45 2.3 3.2 5.25 4.4 10.15C5.6 15.05 6.5 18.8333 7.1 21.5C7.4 23.0667 7.88333 25.8333 8.55 29.8L8.9 27.85C9 27.25 9.15 26.4167 9.35 25.35C9.75 22.75 10 21.2833 10.1 20.95L12.4 8.7L12.85 6.1L13.4 3.3L13.65 1.8C13.6833 1.46667 13.7833 1.21667 13.95 1.05C14.1167 0.849997 14.3 0.749998 14.5 0.749998C14.6667 0.749998 14.8167 0.833331 14.95 0.999997C15.0833 1.16666 15.15 1.4 15.15 1.7V6.65C15.15 9.15 15.3 12.9333 15.6 18C15.8333 22.6667 15.95 26.4167 15.95 29.25C15.95 30.15 16 31.5333 16.1 33.4C16.1667 35.8 16.2 37.4667 16.2 38.4C16.2 39.1333 16.15 39.6167 16.05 39.85C15.9167 40.05 15.7333 40.15 15.5 40.15ZM24.4504 39.65C23.8504 39.65 23.5171 39.3 23.4504 38.6V37.95C23.4837 37.7833 23.5004 37.5833 23.5004 37.35L23.3004 37.15C23.5671 36.45 23.7004 35.7667 23.7004 35.1C23.7004 34.3333 23.6504 33.2333 23.5504 31.8L23.4504 28.5C23.4504 26.8333 23.5004 24.3333 23.6004 21C23.7337 18.0333 23.8004 15.5167 23.8004 13.45L23.7004 10.45C23.6337 9.55 23.6004 8.55 23.6004 7.45C23.6004 6.95 23.7171 6.6 23.9504 6.4C24.1837 6.16667 24.5504 6.05 25.0504 6.05C25.3837 6.05 25.6504 6.15 25.8504 6.35C25.9171 6.38333 26.4004 6.45 27.3004 6.55C28.1337 6.65 28.8504 6.8 29.4504 7C30.0837 7.2 30.4004 7.45 30.4004 7.75C30.4004 8.08333 30.0837 8.41667 29.4504 8.75C27.5504 8.11667 26.2004 7.8 25.4004 7.8L25.1504 8.1C25.1837 8.4 25.2004 9.11666 25.2004 10.25C25.2004 11.6833 25.1671 12.9667 25.1004 14.1C25.0671 15.2667 25.0504 16.5667 25.0504 18C25.0504 18.9333 25.2837 19.4 25.7504 19.4L26.5504 19.35C26.8171 19.3167 27.1004 19.3 27.4004 19.3C28.7004 19.3 29.3504 19.6 29.3504 20.2C29.3504 20.5667 29.2671 20.8833 29.1004 21.15C28.9337 21.3833 28.6837 21.5 28.3504 21.5C27.8504 21.5 27.4671 21.3667 27.2004 21.1L25.6004 20.85H25.3504L25.1004 21.1V21.25C25.1671 21.8167 25.2004 23.1333 25.2004 25.2C25.2004 26.5 25.1837 27.6833 25.1504 28.75L25.1004 32.3C25.1004 33.6 25.1504 34.9333 25.2504 36.3C25.2837 37.0667 25.4504 37.5833 25.7504 37.85C26.0504 38.0833 26.6004 38.2 27.4004 38.2L28.3004 38.15C28.6004 38.1167 28.9337 38.1 29.3004 38.1C30.2671 38.1 30.7504 38.3167 30.7504 38.75C30.7504 39.35 30.0171 39.65 28.5504 39.65H24.4504ZM39.9934 39.35C39.36 39.15 38.81 38.8667 38.3434 38.5C37.91 38.1333 37.4934 37.5833 37.0934 36.85C36.3934 35.5167 35.9767 33.6 35.8434 31.1C35.7767 29.9667 35.7434 28.9667 35.7434 28.1V22.4C35.7434 20.2333 35.81 18.1333 35.9434 16.1C36.0434 14.6 36.1934 13.3333 36.3934 12.3C36.5934 11.2667 36.91 10.2333 37.3434 9.2C37.81 8.13333 38.3267 7.38333 38.8934 6.95C39.1267 6.75 39.5767 6.51667 40.2434 6.25C40.6767 6.08333 41.0934 5.9 41.4934 5.7H43.4934H43.6434C43.6767 5.73333 43.7267 5.75 43.7934 5.75L44.0434 5.8L44.2434 5.95C44.3434 6.05 44.3934 6.11666 44.3934 6.15C44.4267 6.21667 44.4434 6.31667 44.4434 6.45L43.7934 7.2H41.6934C41.06 7.2 40.4767 7.51666 39.9434 8.15C39.4434 8.75 39.06 9.51666 38.7934 10.45C38.5267 11.2833 38.31 12.2667 38.1434 13.4C37.9767 14.5333 37.8767 15.5167 37.8434 16.35C37.7767 17.4167 37.7434 18.15 37.7434 18.55L37.6434 18.8C37.6434 20.6667 37.61 22.35 37.5434 23.85L37.4434 28.9C37.4434 30.3667 37.5434 31.7167 37.7434 32.95C37.91 34.2833 38.3934 35.4833 39.1934 36.55C39.96 37.6167 41.1434 38.15 42.7434 38.15C43.2434 38.15 43.66 38 43.9934 37.7C44.4934 37.7 44.7434 37.8833 44.7434 38.25C44.7434 38.4833 44.5267 38.75 44.0934 39.05C43.6934 39.3833 43.2767 39.6333 42.8434 39.8H41.1934L39.9934 39.35ZM53.8512 38.3L53.8012 36.45C53.7678 35.9167 53.7512 35.3167 53.7512 34.65C53.7512 34.3167 53.7678 34.0333 53.8012 33.8L53.8512 32.9C53.8512 32.5667 53.7845 32.1667 53.6512 31.7C53.6512 29.4667 53.4845 25.3167 53.1512 19.25C52.8178 13.3833 52.6345 9.4 52.6012 7.3C50.5345 7.3 49.1512 7.25 48.4512 7.15C47.7845 6.98333 47.4512 6.71667 47.4512 6.35C47.6178 5.98333 47.9345 5.8 48.4012 5.8C49.4012 5.8 50.8512 5.86667 52.7512 6C54.4845 6.16667 55.9345 6.25 57.1012 6.25H58.1512L59.2012 6.2C59.8012 6.2 60.1012 6.41667 60.1012 6.85C60.1012 7.05 59.9845 7.21667 59.7512 7.35C59.5512 7.45 59.3012 7.5 59.0012 7.5C58.3345 7.5 57.6345 7.46666 56.9012 7.4L54.7512 7.3C54.6178 7.3 54.5512 7.35 54.5512 7.45C54.5178 7.55 54.5012 7.86667 54.5012 8.4C54.5012 11.6333 54.7012 16.5333 55.1012 23.1C55.4678 29.9 55.6512 34.7833 55.6512 37.75C55.6512 37.9833 55.5012 38.2 55.2012 38.4C54.9345 38.6 54.6678 38.7 54.4012 38.7L53.8512 38.3ZM75.2449 39.45C74.7449 39.45 74.4283 39.3833 74.2949 39.25C74.1616 39.15 74.0616 38.85 73.9949 38.35C73.6949 35.9167 73.5116 34.4 73.4449 33.8L73.1949 31.8C72.4616 31.6333 71.6283 31.55 70.6949 31.55L68.8949 31.45C68.0949 31.35 67.5116 31.3 67.1449 31.3C66.9449 31.3 66.8283 31.3833 66.7949 31.55C66.7949 31.65 66.7783 31.7 66.7449 31.7L66.6449 32.7C66.6116 33.3 66.4283 34.5 66.0949 36.3C65.9283 37.2 65.7283 37.9 65.4949 38.4C65.2283 38.9667 64.9783 39.25 64.7449 39.25C64.5449 39.25 64.3283 39.1667 64.0949 39C63.8616 38.8 63.7449 38.6 63.7449 38.4L63.7949 38.25L63.8449 38.1C64.4449 35.7333 64.9449 33.3833 65.3449 31.05L65.9449 27.95L66.5449 24.15C66.5449 24.15 66.7283 23.05 67.0949 20.85C67.2616 19.95 67.5616 18.5 67.9949 16.5C68.4616 14.2333 68.7449 12.6833 68.8449 11.85C68.8783 11.75 68.9449 11.1333 69.0449 10C69.1783 8.73333 69.2949 7.8 69.3949 7.2C69.4949 6.33333 69.5949 5.83333 69.6949 5.7H70.0449C70.1449 5.73333 70.2616 5.75 70.3949 5.75C70.7949 5.75 71.0949 5.65 71.2949 5.45C71.5283 5.45 71.7283 5.53333 71.8949 5.7C72.0949 5.83333 72.1949 6 72.1949 6.2C72.1949 7.8 72.3116 9.63333 72.5449 11.7C72.6783 12.7667 72.7783 13.65 72.8449 14.35C73.2116 18.65 74.1449 26.7167 75.6449 38.55V38.7C75.6449 39.0333 75.5116 39.2833 75.2449 39.45ZM72.9449 30.45C72.6116 25.65 71.9783 18.5667 71.0449 9.2L68.3449 22.55C67.5783 26.3833 67.1949 28.8 67.1949 29.8C67.1949 29.9667 67.8283 30.1167 69.0949 30.25C70.3616 30.3833 71.4783 30.45 72.4449 30.45H72.9449ZM102.214 43.45C101.714 43.35 101.514 43.0333 101.614 42.5L101.864 41.2C102.03 40.4667 102.114 39.8 102.114 39.2C100.98 39.1 99.847 39.05 98.7137 39.05C97.2803 39.05 95.7303 39.1167 94.0637 39.25C92.4303 39.4167 90.8303 39.5833 89.2637 39.75C88.997 40.0167 88.8637 40.3667 88.8637 40.8C88.8637 40.8333 88.9137 41.15 89.0137 41.75C89.0803 42.0167 89.1137 42.2 89.1137 42.3C89.1137 42.6 88.9303 42.8 88.5637 42.9L88.3637 42.95C88.097 42.95 87.847 42.8667 87.6137 42.7C87.3803 42.5333 87.247 42.3333 87.2137 42.1C87.0803 40.7 87.0137 39.65 87.0137 38.95C87.0137 38.65 87.1303 38.4333 87.3637 38.3C87.6303 38.1333 87.897 38.0667 88.1637 38.1C88.8637 38.1333 89.3637 37.9667 89.6637 37.6C89.9637 37.2333 90.2303 36.7 90.4637 36C91.1303 33.5333 91.547 31.6667 91.7137 30.4C92.047 27.4333 92.2637 25.1333 92.3637 23.5C92.4637 21.8333 92.5303 19.9 92.5637 17.7C92.5637 17.1333 92.5803 16.1667 92.6137 14.8C92.647 13.4333 92.697 12 92.7637 10.5C92.797 10.1667 92.7803 9.66666 92.7137 9C92.647 8.46666 92.6137 8.06666 92.6137 7.8C92.5803 7.26666 92.6637 6.9 92.8637 6.7C93.097 6.5 93.4803 6.4 94.0137 6.4L99.6637 6.25C100.064 6.25 100.38 6.36667 100.614 6.6C100.88 6.83333 100.997 7.15 100.964 7.55L100.514 17.7C100.314 20.9 100.214 23.3333 100.214 25C100.214 26.7333 100.28 28.7167 100.414 30.95C100.414 32.8833 100.464 35.1 100.564 37.6C101.73 37.3333 102.614 37.2 103.214 37.2C103.614 37.2 103.93 37.3 104.164 37.5C104.43 37.7 104.564 37.95 104.564 38.25C104.564 38.4833 104.497 38.6833 104.364 38.85C103.864 39.5833 103.564 40.3833 103.464 41.25C103.397 42.15 103.347 42.6833 103.314 42.85C103.18 43.3833 102.814 43.5833 102.214 43.45ZM91.7637 37.8C94.7303 37.6667 96.997 37.55 98.5637 37.45C98.697 31.35 98.8137 26.6333 98.9137 23.3L99.0637 18.45C99.1303 16.25 99.1637 14.6333 99.1637 13.6C99.1637 12.0333 99.147 10.7 99.1137 9.6C99.1137 9.13333 99.047 8.81666 98.9137 8.65C98.7803 8.48333 98.5137 8.38333 98.1137 8.35C97.747 8.31667 97.1803 8.3 96.4137 8.3H94.6637C94.4637 11.1 94.247 15.1833 94.0137 20.55C93.7803 25.75 93.6137 28.7833 93.5137 29.65C93.2803 31.6833 93.047 33.2167 92.8137 34.25C92.6137 35.2833 92.2637 36.4667 91.7637 37.8ZM108.807 38.7C108.407 38.9333 108.073 39.05 107.807 39.05C107.407 39.05 107.157 38.85 107.057 38.45V38.3C107.057 38.0667 107.19 37.8667 107.457 37.7C107.723 37.5 107.907 37.3667 108.007 37.3C108.64 36.7667 109.123 36.1167 109.457 35.35C109.823 34.5833 110.19 33.55 110.557 32.25C111.223 29.6833 111.557 26.75 111.557 23.45C111.557 22.6167 111.523 21.3667 111.457 19.7C111.357 17.6333 111.273 15.25 111.207 12.55C111.14 9.85 111.123 8.13333 111.157 7.4C111.123 7.4 111.073 7.41666 111.007 7.45C110.94 7.45 110.857 7.45 110.757 7.45C110.023 7.45 109.657 7.28333 109.657 6.95C109.657 6.58333 109.923 6.3 110.457 6.1C110.957 5.9 111.523 5.81666 112.157 5.85C112.79 5.85 113.207 5.85 113.407 5.85H115.807C116.94 5.85 117.573 5.83333 117.707 5.8C118.54 5.73333 119.14 5.81667 119.507 6.05C119.873 6.28333 120.057 6.73333 120.057 7.4C120.057 7.7 120.04 7.93333 120.007 8.1C119.873 9.06666 119.807 10.1833 119.807 11.45L119.857 15C119.857 17.0333 119.84 18.55 119.807 19.55L119.757 24.15V25.65C119.757 27.5833 119.857 30.5167 120.057 34.45C120.057 34.95 120.09 35.5167 120.157 36.15C120.223 36.75 120.273 37.1833 120.307 37.45V37.65C120.307 37.9833 120.24 38.2167 120.107 38.35C120.007 38.4833 119.79 38.5667 119.457 38.6H119.357C119.057 38.6 118.807 38.5167 118.607 38.35C118.44 38.1833 118.357 37.9333 118.357 37.6L118.407 34.45C118.44 33.2167 118.457 31.3667 118.457 28.9L118.307 15.75L118.357 12.65C118.357 11.3167 118.307 10.0333 118.207 8.8C118.207 8.6 118.107 8.2 117.907 7.6H112.457L112.657 11.55L112.807 14.45C112.94 19.1833 113.007 22.7333 113.007 25.1C112.94 28.7 112.423 32.0167 111.457 35.05C110.89 36.75 110.007 37.9667 108.807 38.7ZM134.702 39.5C134.402 39.5 134.152 39.4167 133.952 39.25C133.752 39.0833 133.669 38.85 133.702 38.55C133.769 35.95 133.835 34.0167 133.902 32.75L134.002 29.95L133.552 22.35C133.385 22.3833 133.169 22.4167 132.902 22.45C132.669 22.4833 132.502 22.5333 132.402 22.6C132.269 22.7 132.052 22.85 131.752 23.05C131.452 23.2167 131.202 23.3667 131.002 23.5C130.835 23.6333 130.702 23.8333 130.602 24.1C130.502 24.3667 130.352 24.7333 130.152 25.2C129.952 25.6667 129.785 26.1 129.652 26.5C129.552 26.8667 129.502 27.2667 129.502 27.7L129.452 30.45L129.502 33.2C129.469 34.3667 129.235 35.55 128.802 36.75C128.402 37.9167 127.852 38.6167 127.152 38.85C127.052 38.8833 126.902 38.9 126.702 38.9C126.435 38.9 126.152 38.8 125.852 38.6C125.585 38.4 125.452 38.1667 125.452 37.9C125.452 37.6333 125.619 37.4 125.952 37.2C126.219 37.0333 126.419 36.85 126.552 36.65C126.719 36.4167 126.852 36.1333 126.952 35.8C127.385 34.5 127.602 33.1667 127.602 31.8C127.602 30.1333 127.652 28.7833 127.752 27.75C127.885 26.6833 128.169 25.55 128.602 24.35C128.735 23.9833 129.035 23.4333 129.502 22.7L130.102 21.75C129.035 20.95 128.235 20.1667 127.702 19.4C127.169 18.6333 126.902 17.6833 126.902 16.55C126.902 16.3167 126.935 15.9667 127.002 15.5C127.069 14.9 127.102 14.3833 127.102 13.95C127.135 13.4833 127.152 13.1 127.152 12.8C127.319 10.2 128.402 8.16666 130.402 6.7C131.535 5.9 132.719 5.5 133.952 5.5C134.552 5.5 134.952 5.63333 135.152 5.9C135.385 6.16666 135.469 6.6 135.402 7.2C135.202 8.53333 135.102 10.2 135.102 12.2V16.95C135.102 19.0833 135.119 20.6833 135.152 21.75C135.152 23.2833 135.202 24.7833 135.302 26.25C135.369 27.7833 135.402 28.9 135.402 29.6V32V36.7C135.402 37.0667 135.419 37.3833 135.452 37.65C135.485 37.9167 135.519 38.15 135.552 38.35V38.5C135.552 38.7667 135.485 38.9833 135.352 39.15C135.219 39.35 135.035 39.4667 134.802 39.5H134.702ZM131.002 20.25C131.469 20.5167 131.919 20.65 132.352 20.65C132.785 20.65 133.185 20.5167 133.552 20.25L133.602 7.2L132.652 7.6C132.052 7.83333 131.635 8.05 131.402 8.25C130.202 9.31667 129.452 10.5667 129.152 12C128.952 12.9333 128.852 14.0667 128.852 15.4C128.852 16.2333 128.869 16.85 128.902 17.25C129.135 18.6833 129.835 19.6833 131.002 20.25ZM154.788 39.35C154.155 39.15 153.605 38.8667 153.138 38.5C152.705 38.1333 152.288 37.5833 151.888 36.85C151.188 35.5167 150.772 33.6 150.638 31.1C150.572 29.9667 150.538 28.9667 150.538 28.1V22.4C150.538 20.2333 150.605 18.1333 150.738 16.1C150.838 14.6 150.988 13.3333 151.188 12.3C151.388 11.2667 151.705 10.2333 152.138 9.2C152.605 8.13333 153.122 7.38333 153.688 6.95C153.922 6.75 154.372 6.51667 155.038 6.25C155.472 6.08333 155.888 5.9 156.288 5.7H158.288H158.438C158.472 5.73333 158.522 5.75 158.588 5.75L158.838 5.8L159.038 5.95C159.138 6.05 159.188 6.11666 159.188 6.15C159.222 6.21667 159.238 6.31667 159.238 6.45L158.588 7.2H156.488C155.855 7.2 155.272 7.51666 154.738 8.15C154.238 8.75 153.855 9.51666 153.588 10.45C153.322 11.2833 153.105 12.2667 152.938 13.4C152.772 14.5333 152.672 15.5167 152.638 16.35C152.572 17.4167 152.538 18.15 152.538 18.55L152.438 18.8C152.438 20.6667 152.405 22.35 152.338 23.85L152.238 28.9C152.238 30.3667 152.338 31.7167 152.538 32.95C152.705 34.2833 153.188 35.4833 153.988 36.55C154.755 37.6167 155.938 38.15 157.538 38.15C158.038 38.15 158.455 38 158.788 37.7C159.288 37.7 159.538 37.8833 159.538 38.25C159.538 38.4833 159.322 38.75 158.888 39.05C158.488 39.3833 158.072 39.6333 157.638 39.8H155.988L154.788 39.35ZM166.146 39.55C165.879 39.55 165.646 39.45 165.446 39.25C165.279 39.05 165.196 38.8 165.196 38.5L165.146 36.95C165.146 35.75 165.246 33.9833 165.446 31.65C165.613 29.05 165.696 27.3 165.696 26.4L165.646 24.15C165.613 23.4833 165.596 22.75 165.596 21.95C165.596 20.6167 165.646 18.6333 165.746 16C165.846 13.3 165.896 11.3 165.896 10L165.846 7.1L165.646 6.85V6.55C165.646 5.68333 165.996 5.25 166.696 5.25C167.229 5.25 168.096 5.46667 169.296 5.9C170.529 6.3 171.146 6.63333 171.146 6.9V7.05C171.746 8.01667 172.146 8.98333 172.346 9.95C172.579 10.9167 172.696 12.15 172.696 13.65C172.696 16.0833 172.429 18.0667 171.896 19.6H171.946C171.813 19.8667 171.546 20.3 171.146 20.9L170.446 21.95C171.046 22.4167 171.546 23.1 171.946 24C172.379 24.9 172.646 25.7667 172.746 26.6C172.779 26.9 172.813 27.2667 172.846 27.7C172.879 28.1333 172.913 28.65 172.946 29.25L172.996 30.55V31.25C172.996 34.45 171.996 36.8167 169.996 38.35C168.963 39.15 167.679 39.55 166.146 39.55ZM167.696 20.95C169.896 20.95 170.996 18.7333 170.996 14.3C170.996 13.9333 170.963 13.2167 170.896 12.15L170.846 11.2L170.746 11.1C170.613 10 170.429 9.13333 170.196 8.5C170.029 8.03333 169.763 7.66667 169.396 7.4C169.029 7.1 168.629 6.95 168.196 6.95C167.463 6.95 167.096 9.13333 167.096 13.5C167.096 14.3333 167.113 14.9 167.146 15.2V16.2V17.9C167.113 18.4333 167.096 19.0333 167.096 19.7V20.3C167.096 20.3 167.129 20.4 167.196 20.6L167.296 20.95H167.696ZM166.946 37.6C167.746 37.6 168.479 37.3333 169.146 36.8C169.846 36.2667 170.396 35.5833 170.796 34.75C171.196 33.8833 171.396 33.0333 171.396 32.2L171.446 32V31.6V31.05C171.446 29.65 171.329 28.3167 171.096 27.05C170.729 25.35 170.079 24.1167 169.146 23.35C168.613 22.9167 167.979 22.7 167.246 22.7C167.079 25.4667 166.996 27.7333 166.996 29.5V30.65C166.996 31.6167 167.046 32.3833 167.146 32.95C166.979 33.25 166.896 34.05 166.896 35.35V36.65L166.946 37.6ZM184.706 39.95C180.806 39.95 178.856 33.8167 178.856 21.55V19.8C178.856 10.5 180.056 5.85 182.456 5.85C182.623 5.85 182.856 5.9 183.156 6C184.223 6.36666 185.273 6.6 186.306 6.7C186.94 6.83333 187.573 7.48333 188.206 8.65C188.906 9.85 189.423 11.4333 189.756 13.4C190.123 15.3667 190.306 17.3833 190.306 19.45L190.206 19.7C190.206 20.8 190.223 21.7833 190.256 22.65L190.306 25.65C190.306 27.35 190.24 28.8833 190.106 30.25C189.906 32.3167 189.573 34.1 189.106 35.6C188.806 36.5 188.456 37.25 188.056 37.85C187.69 38.45 187.223 38.95 186.656 39.35C186.123 39.75 185.473 39.95 184.706 39.95ZM184.506 38.5C185.806 38.5 186.773 37.5833 187.406 35.75C188.04 33.8833 188.423 31.9833 188.556 30.05C188.69 28.05 188.756 26.45 188.756 25.25C188.756 23.9167 188.656 21.95 188.456 19.35C188.29 16.45 188.206 14.4833 188.206 13.45L188.006 13.05L188.106 12.8C188.106 11.3333 187.69 10.0667 186.856 9C186.056 7.93333 185.073 7.4 183.906 7.4C182.373 7.4 181.456 8.13333 181.156 9.6C181.09 10.1 181.023 10.8167 180.956 11.75C180.956 14.2167 180.856 15.9 180.656 16.8C180.656 17.3 180.606 18.0833 180.506 19.15L180.406 21.5C180.406 22.2333 180.423 22.8833 180.456 23.45L180.506 25.45C180.506 27.0167 180.64 28.8167 180.906 30.85C181.106 32.35 181.34 33.6167 181.606 34.65C181.873 35.6833 182.256 36.5667 182.756 37.3C183.256 38.1 183.84 38.5 184.506 38.5ZM198.941 39C198.508 39 198.208 38.9167 198.041 38.75C197.875 38.55 197.791 38.2333 197.791 37.8C197.491 21.9333 197.208 12.75 196.941 10.25C196.841 9.61666 196.725 8.66666 196.591 7.4C196.558 6.96666 196.641 6.63333 196.841 6.4C197.075 6.13333 197.375 6 197.741 6C198.375 6 198.691 6.43333 198.691 7.3C198.658 8.46667 198.725 11.5833 198.891 16.65C198.958 18.5167 198.991 20.2667 198.991 21.9C198.991 24.1333 199.041 26.9333 199.141 30.3L199.491 35.1L199.891 34.6C200.825 32.1667 201.991 29 203.391 25.1C204.791 21.2 205.625 18.8333 205.891 18L206.541 16.4C207.075 15.0667 207.508 13.8833 207.841 12.85C208.041 12.25 208.308 11.2833 208.641 9.95C208.908 8.98333 209.175 8.1 209.441 7.3C209.708 6.46667 209.941 5.96666 210.141 5.8C210.275 5.7 210.458 5.63333 210.691 5.6C210.925 5.53333 211.125 5.51667 211.291 5.55C211.391 5.58333 211.491 5.7 211.591 5.9C211.691 6.06667 211.741 6.23333 211.741 6.4C211.775 6.96666 211.775 7.6 211.741 8.3C211.741 8.96666 211.741 9.58333 211.741 10.15V12.25C211.741 13.55 211.808 15.5 211.941 18.1C212.008 18.9333 212.075 20.2167 212.141 21.95C212.175 22.55 212.191 23.4333 212.191 24.6C212.191 26.4 212.175 27.7333 212.141 28.6L212.091 32.65C212.091 34.25 212.141 35.85 212.241 37.45V37.55C212.241 37.7833 212.125 38 211.891 38.2C211.691 38.3667 211.441 38.4667 211.141 38.5C210.841 38.5 210.575 38.4167 210.341 38.25C210.141 38.05 210.058 37.8167 210.091 37.55L210.241 33.85L210.541 26.1V24.6C210.475 22.0333 210.425 19.0667 210.391 15.7C210.358 12.3 210.358 10.5667 210.391 10.5L210.041 10.45L206.591 20C203.591 28.4667 201.241 34.7833 199.541 38.95L198.941 39ZM219.302 39.15C218.669 39.15 218.352 38.95 218.352 38.55C218.352 36.8833 218.819 34.2833 219.752 30.75C220.686 27.25 221.152 24.6333 221.152 22.9C221.152 21.9667 220.702 19.4333 219.802 15.3C218.902 11.1667 218.302 8.91666 218.002 8.55V8.35C218.036 8.31667 218.052 8.28333 218.052 8.25C218.052 8.21666 218.052 8.2 218.052 8.2C218.052 8 217.969 7.76666 217.802 7.5C217.669 7.1 217.602 6.9 217.602 6.9C217.602 6.76667 217.702 6.65 217.902 6.55C218.136 6.45 218.336 6.4 218.502 6.4C218.769 6.4 218.986 6.6 219.152 7C219.352 7.4 219.486 7.81667 219.552 8.25L219.602 9.4C220.069 10.7667 220.486 12.4333 220.852 14.4C221.286 16.6 221.636 18.15 221.902 19.05C222.102 18.65 222.352 17.35 222.652 15.15C222.986 12.95 223.202 11.3 223.302 10.2C223.502 7.5 223.719 6.11667 223.952 6.05C223.952 6.05 224.086 6.01667 224.352 5.95L224.752 5.9L225.202 6.5C224.669 7.26666 224.402 8.73333 224.402 10.9V11.2L224.452 11.5L224.402 11.55C224.269 12.75 223.936 14.5833 223.402 17.05C222.836 19.7833 222.552 21.85 222.552 23.25C222.552 23.7833 222.986 26 223.852 29.9C224.719 33.8 225.286 36.0833 225.552 36.75C225.552 36.7833 225.636 36.9167 225.802 37.15C226.036 37.5833 226.152 37.9333 226.152 38.2C226.152 38.4 226.069 38.5667 225.902 38.7C225.769 38.8333 225.602 38.9 225.402 38.9C225.169 38.9 224.952 38.85 224.752 38.75L223.852 34.95C223.052 31.95 222.419 29.1667 221.952 26.6C221.552 27.2 221.186 28.9333 220.852 31.8C220.519 34.7667 220.219 36.6 219.952 37.3C220.019 37.4333 220.052 37.6333 220.052 37.9C220.052 38.2333 219.986 38.5333 219.852 38.8C219.752 39.0333 219.569 39.15 219.302 39.15Z" fill="#FF9900"/>
</svg>
